<svg width="64" height="64" viewBox="0 0 64 64" fill="none" xmlns="http://www.w3.org/2000/svg">
<path d="M46 46C56.6731 43.4308 64 38.1265 64 32C64 25.8735 56.6731 20.5692 46 18C47.098 22.2126 47.716 26.9676 47.716 32C47.716 37.0324 47.098 41.7874 46 46Z" fill="#404040"/>
<path d="M18 46C7.32691 43.4308 0 38.1265 0 32C0 25.8735 7.32691 20.5692 18 18C16.902 22.2126 16.284 26.9676 16.284 32C16.284 37.0324 16.902 41.7874 18 46Z" fill="#404040"/>
<path d="M18 46C20.5692 56.6731 25.8735 64 32 64C38.1265 64 43.4308 56.6731 46 46C41.7874 47.098 37.0324 47.716 32 47.716C26.9676 47.716 22.2126 47.098 18 46Z" fill="#FFD11A"/>
<path d="M18 18C20.5692 7.3269 25.8735 -2.78665e-07 32 0C38.1265 2.78665e-07 43.4308 7.32691 46 18C41.7874 16.902 37.0324 16.284 32 16.284C26.9676 16.284 22.2126 16.902 18 18Z" fill="#FFD11A"/>
</svg>
